<svg xmlns="http://www.w3.org/2000/svg" xmlns:xlink="http://www.w3.org/1999/xlink" width="500" zoomAndPan="magnify" viewBox="0 0 375 149.999998" height="200" preserveAspectRatio="xMidYMid meet" version="1.0"><path fill="#000000" d="M 128.550781 110.253906 L 154.640625 39.464844 L 163.644531 39.464844 L 189.621094 110.253906 L 180.617188 110.253906 L 174.148438 92.050781 L 144.023438 92.050781 L 137.453125 110.253906 Z M 146.554688 85.179688 L 171.628906 85.179688 L 159.09375 50.1875 Z M 146.554688 85.179688 " fill-opacity="1" fill-rule="nonzero"/><path fill="#000000" d="M 219.449219 110.253906 C 214.871094 110.253906 211.265625 109.148438 208.628906 106.921875 C 206.003906 104.699219 204.695312 100.6875 204.695312 94.882812 L 204.695312 67.273438 L 195.992188 67.273438 L 195.992188 60.105469 L 204.695312 60.105469 L 205.796875 48.066406 L 213.183594 48.066406 L 213.183594 60.105469 L 227.953125 60.105469 L 227.953125 67.273438 L 213.183594 67.273438 L 213.183594 94.882812 C 213.183594 98.054688 213.820312 100.195312 215.101562 101.308594 C 216.386719 102.417969 218.648438 102.972656 221.882812 102.972656 L 227.136719 102.972656 L 227.136719 110.253906 Z M 219.449219 110.253906 " fill-opacity="1" fill-rule="nonzero"/><path fill="#000000" d="M 238.761719 37.449219 L 247.261719 37.449219 L 247.261719 110.253906 L 238.761719 110.253906 Z M 238.761719 37.449219 " fill-opacity="1" fill-rule="nonzero"/><path fill="#000000" d="M 277.898438 111.472656 C 273.71875 111.472656 270.246094 110.765625 267.480469 109.355469 C 264.71875 107.933594 262.664062 106.042969 261.308594 103.6875 C 259.964844 101.320312 259.292969 98.757812 259.292969 96 C 259.292969 90.875 261.246094 86.9375 265.160156 84.179688 C 269.070312 81.414062 274.394531 80.027344 281.132812 80.027344 L 294.6875 80.027344 L 294.6875 79.414062 C 294.6875 75.03125 293.542969 71.71875 291.25 69.464844 C 288.960938 67.203125 285.890625 66.074219 282.046875 66.074219 C 278.746094 66.074219 275.898438 66.898438 273.503906 68.550781 C 271.105469 70.203125 269.605469 72.609375 268.996094 75.777344 L 260.308594 75.777344 C 260.640625 72.132812 261.867188 69.0625 263.988281 66.574219 C 266.113281 64.082031 268.757812 62.179688 271.929688 60.863281 C 275.097656 59.546875 278.46875 58.886719 282.046875 58.886719 C 289.0625 58.886719 294.332031 60.757812 297.863281 64.5 C 301.402344 68.242188 303.175781 73.210938 303.175781 79.414062 L 303.175781 110.253906 L 295.601562 110.253906 L 295.085938 101.253906 C 293.675781 104.085938 291.601562 106.503906 288.875 108.496094 C 286.144531 110.476562 282.484375 111.472656 277.898438 111.472656 Z M 279.214844 104.289062 C 282.449219 104.289062 285.230469 103.449219 287.558594 101.769531 C 289.886719 100.078125 291.65625 97.890625 292.867188 95.199219 C 294.078125 92.5 294.6875 89.667969 294.6875 86.699219 L 294.6875 86.597656 L 281.847656 86.597656 C 276.855469 86.597656 273.332031 87.457031 271.273438 89.171875 C 269.21875 90.890625 268.195312 93.035156 268.195312 95.601562 C 268.195312 98.226562 269.152344 100.328125 271.070312 101.910156 C 272.996094 103.496094 275.710938 104.289062 279.214844 104.289062 Z M 279.214844 104.289062 " fill-opacity="1" fill-rule="nonzero"/><path fill="#000000" d="M 335.136719 111.472656 C 329.132812 111.472656 324.144531 109.957031 320.164062 106.921875 C 316.1875 103.886719 313.859375 99.777344 313.195312 94.582031 L 321.882812 94.582031 C 322.425781 97.210938 323.820312 99.484375 326.074219 101.410156 C 328.335938 103.328125 331.390625 104.289062 335.234375 104.289062 C 338.804688 104.289062 341.433594 103.527344 343.121094 102.011719 C 344.8125 100.496094 345.65625 98.691406 345.65625 96.601562 C 345.65625 93.566406 344.558594 91.546875 342.363281 90.53125 C 340.167969 89.523438 337.085938 88.617188 333.117188 87.8125 C 330.417969 87.269531 327.714844 86.492188 325.015625 85.480469 C 322.328125 84.472656 320.070312 83.039062 318.246094 81.1875 C 316.421875 79.335938 315.511719 76.894531 315.511719 73.859375 C 315.511719 69.472656 317.148438 65.878906 320.421875 63.082031 C 323.691406 60.289062 328.125 58.886719 333.71875 58.886719 C 339.042969 58.886719 343.410156 60.21875 346.816406 62.882812 C 350.222656 65.542969 352.1875 69.335938 352.726562 74.261719 L 344.339844 74.261719 C 343.996094 71.695312 342.898438 69.691406 341.046875 68.25 C 339.195312 66.800781 336.71875 66.074219 333.617188 66.074219 C 330.585938 66.074219 328.242188 66.714844 326.589844 67.992188 C 324.9375 69.273438 324.117188 70.953125 324.117188 73.042969 C 324.117188 75.070312 325.175781 76.648438 327.292969 77.796875 C 329.417969 78.941406 332.300781 79.921875 335.9375 80.730469 C 339.035156 81.410156 341.984375 82.238281 344.78125 83.21875 C 347.585938 84.191406 349.882812 85.636719 351.667969 87.554688 C 353.449219 89.472656 354.34375 92.257812 354.34375 95.898438 C 354.40625 100.414062 352.703125 104.140625 349.234375 107.078125 C 345.769531 110.007812 341.070312 111.472656 335.136719 111.472656 Z M 335.136719 111.472656 " fill-opacity="1" fill-rule="nonzero"/><path fill="#ff3131" d="M 98.785156 14.355469 L 112.9375 14.355469 L 112.9375 103.023438 C 112.9375 110.808594 111.523438 117.472656 108.6875 123.015625 C 105.855469 128.570312 101.25 132.820312 94.875 135.769531 C 88.511719 138.71875 79.964844 140.191406 69.230469 140.191406 C 56.011719 140.191406 45.890625 137.417969 38.871094 131.875 C 31.847656 126.332031 27.925781 118.542969 27.105469 108.519531 L 41.089844 108.519531 C 41.679688 114.300781 44.066406 119.167969 48.246094 123.117188 C 52.433594 127.066406 59.429688 129.042969 69.230469 129.042969 C 79.722656 129.042969 87.269531 127.03125 91.871094 123.015625 C 96.480469 119.007812 98.785156 112.285156 98.785156 102.851562 L 98.785156 83.742188 C 92.761719 95.1875 81.789062 100.90625 65.867188 100.90625 C 51.941406 100.90625 41.648438 96.863281 34.980469 88.78125 C 28.316406 80.703125 24.988281 69.875 24.988281 56.304688 C 24.988281 42.738281 28.316406 31.941406 34.980469 23.917969 C 41.648438 15.894531 51.941406 11.878906 65.867188 11.878906 C 73.886719 11.878906 80.644531 13.417969 86.132812 16.488281 C 91.617188 19.550781 95.835938 23.917969 98.785156 29.585938 Z M 69.230469 89.753906 C 78.664062 89.753906 85.949219 87.1875 91.085938 82.054688 C 96.214844 76.921875 98.785156 68.339844 98.785156 56.304688 C 98.785156 44.390625 96.214844 35.863281 91.085938 30.730469 C 85.949219 25.597656 78.664062 23.03125 69.230469 23.03125 C 59.199219 23.03125 51.730469 25.597656 46.828125 30.730469 C 41.933594 35.863281 39.488281 44.390625 39.488281 56.304688 C 39.488281 68.226562 41.933594 76.78125 46.828125 81.96875 C 51.730469 87.160156 59.199219 89.753906 69.230469 89.753906 Z M 69.230469 89.753906 " fill-opacity="1" fill-rule="nonzero"/></svg>