<svg xmlns="http://www.w3.org/2000/svg" xmlns:xlink="http://www.w3.org/1999/xlink" width="500" zoomAndPan="magnify" viewBox="0 0 375 374.999991" height="500" preserveAspectRatio="xMidYMid meet" version="1.0"><defs><g/></defs><g fill="#000000" fill-opacity="1"><g transform="translate(137.283979, 233.070712)"><g><path d="M 2.4375 0 L 23.40625 -56.890625 L 30.640625 -56.890625 L 51.515625 0 L 44.296875 0 L 39.09375 -14.625 L 14.875 -14.625 L 9.59375 0 Z M 16.90625 -20.15625 L 37.0625 -20.15625 L 26.984375 -48.265625 Z M 16.90625 -20.15625 "/></g></g></g><g fill="#000000" fill-opacity="1"><g transform="translate(191.243663, 233.070712)"><g><path d="M 21.53125 0 C 17.851562 0 14.957031 -0.890625 12.84375 -2.671875 C 10.726562 -4.460938 9.671875 -7.691406 9.671875 -12.359375 L 9.671875 -34.53125 L 2.6875 -34.53125 L 2.6875 -40.3125 L 9.671875 -40.3125 L 10.5625 -49.984375 L 16.5 -49.984375 L 16.5 -40.3125 L 28.359375 -40.3125 L 28.359375 -34.53125 L 16.5 -34.53125 L 16.5 -12.359375 C 16.5 -9.804688 17.007812 -8.082031 18.03125 -7.1875 C 19.0625 -6.289062 20.878906 -5.84375 23.484375 -5.84375 L 27.71875 -5.84375 L 27.71875 0 Z M 21.53125 0 "/></g></g></g><g fill="#000000" fill-opacity="1"><g transform="translate(222.693061, 233.070712)"><g><path d="M 5.609375 0 L 5.609375 -58.515625 L 12.4375 -58.515625 L 12.4375 0 Z M 5.609375 0 "/></g></g></g><g fill="#000000" fill-opacity="1"><g transform="translate(240.733792, 233.070712)"><g><path d="M 19.015625 0.96875 C 15.660156 0.96875 12.867188 0.398438 10.640625 -0.734375 C 8.421875 -1.867188 6.769531 -3.382812 5.6875 -5.28125 C 4.601562 -7.175781 4.0625 -9.234375 4.0625 -11.453125 C 4.0625 -15.578125 5.628906 -18.75 8.765625 -20.96875 C 11.910156 -23.1875 16.191406 -24.296875 21.609375 -24.296875 L 32.5 -24.296875 L 32.5 -24.78125 C 32.5 -28.300781 31.578125 -30.96875 29.734375 -32.78125 C 27.898438 -34.601562 25.4375 -35.515625 22.34375 -35.515625 C 19.6875 -35.515625 17.394531 -34.847656 15.46875 -33.515625 C 13.550781 -32.191406 12.347656 -30.257812 11.859375 -27.71875 L 4.875 -27.71875 C 5.144531 -30.632812 6.132812 -33.09375 7.84375 -35.09375 C 9.550781 -37.101562 11.675781 -38.632812 14.21875 -39.6875 C 16.769531 -40.75 19.476562 -41.28125 22.34375 -41.28125 C 27.976562 -41.28125 32.21875 -39.773438 35.0625 -36.765625 C 37.90625 -33.765625 39.328125 -29.769531 39.328125 -24.78125 L 39.328125 0 L 33.234375 0 L 32.828125 -7.234375 C 31.691406 -4.953125 30.023438 -3.015625 27.828125 -1.421875 C 25.640625 0.171875 22.703125 0.96875 19.015625 0.96875 Z M 20.078125 -4.796875 C 22.671875 -4.796875 24.898438 -5.472656 26.765625 -6.828125 C 28.640625 -8.179688 30.0625 -9.941406 31.03125 -12.109375 C 32.007812 -14.273438 32.5 -16.550781 32.5 -18.9375 L 32.5 -19.015625 L 22.1875 -19.015625 C 18.175781 -19.015625 15.34375 -18.320312 13.6875 -16.9375 C 12.039062 -15.5625 11.21875 -13.84375 11.21875 -11.78125 C 11.21875 -9.664062 11.988281 -7.972656 13.53125 -6.703125 C 15.070312 -5.429688 17.253906 -4.796875 20.078125 -4.796875 Z M 20.078125 -4.796875 "/></g></g></g><g fill="#000000" fill-opacity="1"><g transform="translate(284.69792, 233.070712)"><g><path d="M 21.046875 0.96875 C 16.222656 0.96875 12.210938 -0.25 9.015625 -2.6875 C 5.816406 -5.125 3.945312 -8.425781 3.40625 -12.59375 L 10.40625 -12.59375 C 10.832031 -10.476562 11.953125 -8.648438 13.765625 -7.109375 C 15.585938 -5.566406 18.039062 -4.796875 21.125 -4.796875 C 24 -4.796875 26.113281 -5.40625 27.46875 -6.625 C 28.820312 -7.84375 29.5 -9.289062 29.5 -10.96875 C 29.5 -13.40625 28.617188 -15.03125 26.859375 -15.84375 C 25.097656 -16.65625 22.617188 -17.390625 19.421875 -18.046875 C 17.253906 -18.472656 15.085938 -19.09375 12.921875 -19.90625 C 10.753906 -20.71875 8.9375 -21.867188 7.46875 -23.359375 C 6.007812 -24.847656 5.28125 -26.8125 5.28125 -29.25 C 5.28125 -32.769531 6.59375 -35.65625 9.21875 -37.90625 C 11.851562 -40.15625 15.414062 -41.28125 19.90625 -41.28125 C 24.1875 -41.28125 27.691406 -40.207031 30.421875 -38.0625 C 33.160156 -35.925781 34.75 -32.882812 35.1875 -28.9375 L 28.4375 -28.9375 C 28.164062 -30.988281 27.285156 -32.597656 25.796875 -33.765625 C 24.304688 -34.929688 22.316406 -35.515625 19.828125 -35.515625 C 17.390625 -35.515625 15.503906 -35 14.171875 -33.96875 C 12.847656 -32.9375 12.1875 -31.582031 12.1875 -29.90625 C 12.1875 -28.28125 13.039062 -27.003906 14.75 -26.078125 C 16.457031 -25.160156 18.773438 -24.378906 21.703125 -23.734375 C 24.191406 -23.191406 26.5625 -22.523438 28.8125 -21.734375 C 31.0625 -20.953125 32.898438 -19.785156 34.328125 -18.234375 C 35.765625 -16.691406 36.484375 -14.460938 36.484375 -11.546875 C 36.535156 -7.910156 35.164062 -4.914062 32.375 -2.5625 C 29.59375 -0.207031 25.816406 0.96875 21.046875 0.96875 Z M 21.046875 0.96875 "/></g></g></g><g fill="#ff3131" fill-opacity="1"><g transform="translate(49.6619, 227.120401)"><g><path d="M 66.125 -71.109375 L 77.515625 -71.109375 L 77.515625 0.140625 C 77.515625 6.398438 76.375 11.753906 74.09375 16.203125 C 71.820312 20.660156 68.125 24.078125 63 26.453125 C 57.882812 28.828125 51.007812 30.015625 42.375 30.015625 C 31.757812 30.015625 23.628906 27.785156 17.984375 23.328125 C 12.347656 18.867188 9.195312 12.609375 8.53125 4.546875 L 19.765625 4.546875 C 20.242188 9.191406 22.164062 13.101562 25.53125 16.28125 C 28.894531 19.457031 34.507812 21.046875 42.375 21.046875 C 50.8125 21.046875 56.878906 19.429688 60.578125 16.203125 C 64.273438 12.984375 66.125 7.582031 66.125 0 L 66.125 -15.359375 C 61.289062 -6.160156 52.472656 -1.5625 39.671875 -1.5625 C 28.484375 -1.5625 20.210938 -4.804688 14.859375 -11.296875 C 9.503906 -17.796875 6.828125 -26.5 6.828125 -37.40625 C 6.828125 -48.3125 9.503906 -56.984375 14.859375 -63.421875 C 20.210938 -69.867188 28.484375 -73.09375 39.671875 -73.09375 C 46.117188 -73.09375 51.546875 -71.859375 55.953125 -69.390625 C 60.367188 -66.929688 63.757812 -63.425781 66.125 -58.875 Z M 42.375 -10.53125 C 49.96875 -10.53125 55.820312 -12.585938 59.9375 -16.703125 C 64.0625 -20.828125 66.125 -27.726562 66.125 -37.40625 C 66.125 -46.976562 64.0625 -53.828125 59.9375 -57.953125 C 55.820312 -62.078125 49.96875 -64.140625 42.375 -64.140625 C 34.320312 -64.140625 28.328125 -62.078125 24.390625 -57.953125 C 20.453125 -53.828125 18.484375 -46.976562 18.484375 -37.40625 C 18.484375 -27.832031 20.453125 -20.957031 24.390625 -16.78125 C 28.328125 -12.613281 34.320312 -10.53125 42.375 -10.53125 Z M 42.375 -10.53125 "/></g></g></g></svg>