<svg xmlns="http://www.w3.org/2000/svg" xmlns:xlink="http://www.w3.org/1999/xlink" width="100" zoomAndPan="magnify" viewBox="0 0 75 74.999997" height="100" preserveAspectRatio="xMidYMid meet" version="1.0"><defs><clipPath id="6209cf6352"><path d="M 0.898438 0.898438 L 74.398438 0.898438 L 74.398438 74.398438 L 0.898438 74.398438 Z M 0.898438 0.898438 " clip-rule="nonzero"/></clipPath><clipPath id="8b35c435b2"><path d="M 2.398438 2.398438 L 72.898438 2.398438 L 72.898438 72.898438 L 2.398438 72.898438 Z M 2.398438 2.398438 " clip-rule="nonzero"/></clipPath><clipPath id="99d3d1c7a8"><path d="M 4.050781 4.050781 L 71.550781 4.050781 L 71.550781 71.550781 L 4.050781 71.550781 Z M 4.050781 4.050781 " clip-rule="nonzero"/></clipPath><clipPath id="7bd9b09b85"><path d="M 21 21 L 53.925781 21 L 53.925781 53.925781 L 21 53.925781 Z M 21 21 " clip-rule="nonzero"/></clipPath></defs><g clip-path="url(#6209cf6352)"><path fill="#00a3ff" d="M 74.09375 37.496094 C 74.09375 38.695312 74.035156 39.890625 73.917969 41.085938 C 73.800781 42.277344 73.625 43.460938 73.390625 44.636719 C 73.15625 45.8125 72.867188 46.972656 72.519531 48.121094 C 72.171875 49.269531 71.765625 50.394531 71.308594 51.503906 C 70.851562 52.609375 70.335938 53.691406 69.773438 54.75 C 69.207031 55.804688 68.59375 56.832031 67.925781 57.828125 C 67.261719 58.824219 66.546875 59.789062 65.785156 60.714844 C 65.027344 61.640625 64.222656 62.527344 63.375 63.375 C 62.527344 64.222656 61.640625 65.027344 60.714844 65.785156 C 59.789062 66.546875 58.824219 67.261719 57.828125 67.925781 C 56.832031 68.59375 55.804688 69.207031 54.75 69.773438 C 53.691406 70.335938 52.609375 70.851562 51.503906 71.308594 C 50.394531 71.765625 49.269531 72.171875 48.121094 72.519531 C 46.972656 72.867188 45.8125 73.15625 44.636719 73.390625 C 43.460938 73.625 42.277344 73.800781 41.085938 73.917969 C 39.890625 74.035156 38.695312 74.09375 37.496094 74.09375 C 36.296875 74.09375 35.101562 74.035156 33.910156 73.917969 C 32.71875 73.800781 31.53125 73.625 30.355469 73.390625 C 29.183594 73.15625 28.019531 72.867188 26.875 72.519531 C 25.726562 72.171875 24.597656 71.765625 23.492188 71.308594 C 22.382812 70.851562 21.300781 70.335938 20.246094 69.773438 C 19.1875 69.207031 18.160156 68.59375 17.164062 67.925781 C 16.167969 67.261719 15.207031 66.546875 14.28125 65.785156 C 13.355469 65.027344 12.464844 64.222656 11.617188 63.375 C 10.773438 62.527344 9.96875 61.640625 9.207031 60.714844 C 8.445312 59.789062 7.734375 58.824219 7.066406 57.828125 C 6.402344 56.832031 5.785156 55.804688 5.222656 54.75 C 4.65625 53.691406 4.144531 52.609375 3.6875 51.503906 C 3.226562 50.394531 2.824219 49.269531 2.476562 48.121094 C 2.128906 46.972656 1.835938 45.8125 1.601562 44.636719 C 1.371094 43.460938 1.195312 42.277344 1.078125 41.085938 C 0.957031 39.890625 0.898438 38.695312 0.898438 37.496094 C 0.898438 36.296875 0.957031 35.101562 1.078125 33.910156 C 1.195312 32.71875 1.371094 31.53125 1.601562 30.355469 C 1.835938 29.183594 2.128906 28.019531 2.476562 26.875 C 2.824219 25.726562 3.226562 24.597656 3.6875 23.492188 C 4.144531 22.382812 4.65625 21.300781 5.222656 20.246094 C 5.785156 19.1875 6.402344 18.160156 7.066406 17.164062 C 7.734375 16.167969 8.445312 15.207031 9.207031 14.28125 C 9.96875 13.355469 10.773438 12.464844 11.617188 11.617188 C 12.464844 10.773438 13.355469 9.96875 14.28125 9.207031 C 15.207031 8.445312 16.167969 7.734375 17.164062 7.066406 C 18.160156 6.402344 19.1875 5.785156 20.246094 5.222656 C 21.300781 4.65625 22.382812 4.144531 23.492188 3.6875 C 24.597656 3.226562 25.726562 2.824219 26.875 2.476562 C 28.019531 2.128906 29.183594 1.835938 30.355469 1.601562 C 31.53125 1.371094 32.71875 1.195312 33.910156 1.078125 C 35.101562 0.957031 36.296875 0.898438 37.496094 0.898438 C 38.695312 0.898438 39.890625 0.957031 41.085938 1.078125 C 42.277344 1.195312 43.460938 1.371094 44.636719 1.601562 C 45.8125 1.835938 46.972656 2.128906 48.121094 2.476562 C 49.269531 2.824219 50.394531 3.226562 51.503906 3.6875 C 52.609375 4.144531 53.691406 4.65625 54.75 5.222656 C 55.804688 5.785156 56.832031 6.402344 57.828125 7.066406 C 58.824219 7.734375 59.789062 8.445312 60.714844 9.207031 C 61.640625 9.96875 62.527344 10.773438 63.375 11.617188 C 64.222656 12.464844 65.027344 13.355469 65.785156 14.28125 C 66.546875 15.207031 67.261719 16.167969 67.925781 17.164062 C 68.59375 18.160156 69.207031 19.1875 69.773438 20.246094 C 70.335938 21.300781 70.851562 22.382812 71.308594 23.492188 C 71.765625 24.597656 72.171875 25.726562 72.519531 26.875 C 72.867188 28.019531 73.15625 29.183594 73.390625 30.355469 C 73.625 31.53125 73.800781 32.71875 73.917969 33.910156 C 74.035156 35.101562 74.09375 36.296875 74.09375 37.496094 Z M 74.09375 37.496094 " fill-opacity="1" fill-rule="nonzero"/></g><g clip-path="url(#8b35c435b2)"><path fill="#ffffff" d="M 72.898438 37.648438 C 72.898438 38.804688 72.84375 39.957031 72.730469 41.105469 C 72.617188 42.253906 72.445312 43.394531 72.222656 44.527344 C 71.996094 45.660156 71.714844 46.777344 71.382812 47.882812 C 71.046875 48.988281 70.65625 50.070312 70.214844 51.140625 C 69.773438 52.207031 69.28125 53.246094 68.738281 54.265625 C 68.191406 55.285156 67.601562 56.273438 66.957031 57.234375 C 66.316406 58.191406 65.628906 59.117188 64.898438 60.011719 C 64.164062 60.902344 63.390625 61.757812 62.574219 62.574219 C 61.757812 63.390625 60.902344 64.164062 60.011719 64.898438 C 59.117188 65.628906 58.191406 66.316406 57.234375 66.957031 C 56.273438 67.601562 55.285156 68.191406 54.265625 68.738281 C 53.246094 69.28125 52.207031 69.773438 51.140625 70.214844 C 50.070312 70.65625 48.988281 71.046875 47.882812 71.382812 C 46.777344 71.714844 45.660156 71.996094 44.527344 72.222656 C 43.394531 72.445312 42.253906 72.617188 41.105469 72.730469 C 39.957031 72.84375 38.804688 72.898438 37.648438 72.898438 C 36.496094 72.898438 35.34375 72.84375 34.195312 72.730469 C 33.046875 72.617188 31.90625 72.445312 30.773438 72.222656 C 29.640625 71.996094 28.523438 71.714844 27.417969 71.382812 C 26.3125 71.046875 25.226562 70.65625 24.160156 70.214844 C 23.09375 69.773438 22.050781 69.28125 21.03125 68.738281 C 20.015625 68.191406 19.027344 67.601562 18.066406 66.957031 C 17.105469 66.316406 16.179688 65.628906 15.289062 64.898438 C 14.394531 64.164062 13.539062 63.390625 12.722656 62.574219 C 11.90625 61.757812 11.132812 60.902344 10.402344 60.011719 C 9.667969 59.117188 8.980469 58.191406 8.339844 57.234375 C 7.699219 56.273438 7.105469 55.285156 6.5625 54.265625 C 6.019531 53.246094 5.523438 52.207031 5.082031 51.140625 C 4.640625 50.070312 4.253906 48.988281 3.917969 47.882812 C 3.582031 46.777344 3.300781 45.660156 3.078125 44.527344 C 2.851562 43.394531 2.683594 42.253906 2.570312 41.105469 C 2.457031 39.957031 2.398438 38.804688 2.398438 37.648438 C 2.398438 36.496094 2.457031 35.34375 2.570312 34.195312 C 2.683594 33.046875 2.851562 31.90625 3.078125 30.773438 C 3.300781 29.640625 3.582031 28.523438 3.917969 27.417969 C 4.253906 26.3125 4.640625 25.226562 5.082031 24.160156 C 5.523438 23.09375 6.019531 22.050781 6.5625 21.03125 C 7.105469 20.015625 7.699219 19.027344 8.339844 18.066406 C 8.980469 17.105469 9.667969 16.179688 10.402344 15.289062 C 11.132812 14.394531 11.90625 13.539062 12.722656 12.722656 C 13.539062 11.90625 14.394531 11.132812 15.289062 10.402344 C 16.179688 9.667969 17.105469 8.980469 18.066406 8.339844 C 19.027344 7.699219 20.015625 7.105469 21.03125 6.5625 C 22.050781 6.019531 23.09375 5.523438 24.160156 5.082031 C 25.226562 4.640625 26.3125 4.253906 27.417969 3.917969 C 28.523438 3.582031 29.640625 3.300781 30.773438 3.078125 C 31.90625 2.851562 33.046875 2.683594 34.195312 2.570312 C 35.34375 2.457031 36.496094 2.398438 37.648438 2.398438 C 38.804688 2.398438 39.957031 2.457031 41.105469 2.570312 C 42.253906 2.683594 43.394531 2.851562 44.527344 3.078125 C 45.660156 3.300781 46.777344 3.582031 47.882812 3.917969 C 48.988281 4.253906 50.070312 4.640625 51.140625 5.082031 C 52.207031 5.523438 53.246094 6.019531 54.265625 6.5625 C 55.285156 7.105469 56.273438 7.699219 57.234375 8.339844 C 58.191406 8.980469 59.117188 9.667969 60.011719 10.402344 C 60.902344 11.132812 61.757812 11.90625 62.574219 12.722656 C 63.390625 13.539062 64.164062 14.394531 64.898438 15.289062 C 65.628906 16.179688 66.316406 17.105469 66.957031 18.066406 C 67.601562 19.027344 68.191406 20.015625 68.738281 21.03125 C 69.28125 22.050781 69.773438 23.09375 70.214844 24.160156 C 70.65625 25.226562 71.046875 26.3125 71.382812 27.417969 C 71.714844 28.523438 71.996094 29.640625 72.222656 30.773438 C 72.445312 31.90625 72.617188 33.046875 72.730469 34.195312 C 72.84375 35.34375 72.898438 36.496094 72.898438 37.648438 Z M 72.898438 37.648438 " fill-opacity="1" fill-rule="nonzero"/></g><g clip-path="url(#99d3d1c7a8)"><path fill="#00a3ff" d="M 71.550781 37.800781 C 71.550781 38.90625 71.496094 40.007812 71.386719 41.109375 C 71.277344 42.207031 71.117188 43.300781 70.902344 44.382812 C 70.683594 45.46875 70.417969 46.539062 70.097656 47.597656 C 69.773438 48.652344 69.402344 49.695312 68.980469 50.714844 C 68.558594 51.734375 68.085938 52.734375 67.5625 53.707031 C 67.042969 54.683594 66.476562 55.628906 65.859375 56.550781 C 65.246094 57.46875 64.589844 58.355469 63.886719 59.210938 C 63.1875 60.0625 62.445312 60.882812 61.664062 61.664062 C 60.882812 62.445312 60.0625 63.1875 59.210938 63.886719 C 58.355469 64.589844 57.46875 65.246094 56.550781 65.859375 C 55.628906 66.476562 54.683594 67.042969 53.707031 67.5625 C 52.734375 68.085938 51.734375 68.558594 50.714844 68.980469 C 49.695312 69.402344 48.652344 69.773438 47.597656 70.097656 C 46.539062 70.417969 45.46875 70.683594 44.382812 70.902344 C 43.300781 71.117188 42.207031 71.277344 41.109375 71.386719 C 40.007812 71.496094 38.90625 71.550781 37.800781 71.550781 C 36.695312 71.550781 35.589844 71.496094 34.492188 71.386719 C 33.390625 71.277344 32.300781 71.117188 31.214844 70.902344 C 30.132812 70.683594 29.058594 70.417969 28.003906 70.097656 C 26.945312 69.773438 25.90625 69.402344 24.882812 68.980469 C 23.863281 68.558594 22.863281 68.085938 21.890625 67.5625 C 20.914062 67.042969 19.96875 66.476562 19.050781 65.859375 C 18.128906 65.246094 17.242188 64.589844 16.390625 63.886719 C 15.535156 63.1875 14.714844 62.445312 13.933594 61.664062 C 13.152344 60.882812 12.410156 60.0625 11.710938 59.210938 C 11.007812 58.355469 10.351562 57.46875 9.738281 56.550781 C 9.125 55.628906 8.554688 54.683594 8.035156 53.707031 C 7.515625 52.734375 7.042969 51.734375 6.617188 50.714844 C 6.195312 49.695312 5.824219 48.652344 5.503906 47.597656 C 5.183594 46.539062 4.914062 45.46875 4.699219 44.382812 C 4.484375 43.300781 4.320312 42.207031 4.210938 41.109375 C 4.105469 40.007812 4.050781 38.90625 4.050781 37.800781 C 4.050781 36.695312 4.105469 35.589844 4.210938 34.492188 C 4.320312 33.390625 4.484375 32.300781 4.699219 31.214844 C 4.914062 30.132812 5.183594 29.058594 5.503906 28.003906 C 5.824219 26.945312 6.195312 25.90625 6.617188 24.882812 C 7.042969 23.863281 7.515625 22.863281 8.035156 21.890625 C 8.554688 20.914062 9.125 19.96875 9.738281 19.050781 C 10.351562 18.128906 11.007812 17.242188 11.710938 16.390625 C 12.410156 15.535156 13.152344 14.714844 13.933594 13.933594 C 14.714844 13.152344 15.535156 12.410156 16.390625 11.710938 C 17.242188 11.007812 18.128906 10.351562 19.050781 9.738281 C 19.96875 9.125 20.914062 8.554688 21.890625 8.035156 C 22.863281 7.515625 23.863281 7.042969 24.882812 6.617188 C 25.90625 6.195312 26.945312 5.824219 28.003906 5.503906 C 29.058594 5.183594 30.132812 4.914062 31.214844 4.699219 C 32.300781 4.484375 33.390625 4.320312 34.492188 4.210938 C 35.589844 4.105469 36.695312 4.050781 37.800781 4.050781 C 38.90625 4.050781 40.007812 4.105469 41.109375 4.210938 C 42.207031 4.320312 43.300781 4.484375 44.382812 4.699219 C 45.46875 4.914062 46.539062 5.183594 47.597656 5.503906 C 48.652344 5.824219 49.695312 6.195312 50.714844 6.617188 C 51.734375 7.042969 52.734375 7.515625 53.707031 8.035156 C 54.683594 8.554688 55.628906 9.125 56.550781 9.738281 C 57.46875 10.351562 58.355469 11.007812 59.210938 11.710938 C 60.0625 12.410156 60.882812 13.152344 61.664062 13.933594 C 62.445312 14.714844 63.1875 15.535156 63.886719 16.390625 C 64.589844 17.242188 65.246094 18.128906 65.859375 19.050781 C 66.476562 19.96875 67.042969 20.914062 67.5625 21.890625 C 68.085938 22.863281 68.558594 23.863281 68.980469 24.882812 C 69.402344 25.90625 69.773438 26.945312 70.097656 28.003906 C 70.417969 29.058594 70.683594 30.132812 70.902344 31.214844 C 71.117188 32.300781 71.277344 33.390625 71.386719 34.492188 C 71.496094 35.589844 71.550781 36.695312 71.550781 37.800781 Z M 71.550781 37.800781 " fill-opacity="1" fill-rule="nonzero"/></g><g clip-path="url(#7bd9b09b85)"><path fill="#ffffff" d="M 37.851562 35.617188 C 37.964844 35.65625 38.085938 35.675781 38.191406 35.71875 C 38.492188 35.847656 38.539062 35.917969 38.789062 36.117188 L 53.363281 50.691406 C 53.433594 50.785156 53.519531 50.867188 53.59375 50.96875 C 54.117188 51.757812 53.890625 52.960938 53.085938 53.492188 C 52.488281 53.890625 51.65625 53.890625 51.058594 53.492188 C 50.960938 53.429688 50.875 53.34375 50.78125 53.265625 L 37.496094 39.980469 L 24.207031 53.265625 L 23.929688 53.492188 C 23.832031 53.550781 23.730469 53.613281 23.617188 53.664062 C 22.851562 53.984375 21.882812 53.699219 21.40625 52.996094 C 21.007812 52.398438 21.007812 51.566406 21.40625 50.96875 C 21.46875 50.867188 21.554688 50.785156 21.632812 50.691406 L 36.207031 36.117188 C 36.300781 36.039062 36.386719 35.953125 36.484375 35.890625 C 36.683594 35.753906 36.90625 35.660156 37.140625 35.617188 C 37.375 35.570312 37.617188 35.597656 37.851562 35.617188 Z M 37.851562 21.042969 C 37.964844 21.074219 38.085938 21.101562 38.191406 21.144531 C 38.492188 21.265625 38.539062 21.34375 38.789062 21.535156 L 53.363281 36.117188 C 53.433594 36.210938 53.519531 36.292969 53.59375 36.394531 C 54.054688 37.085938 53.960938 38.09375 53.363281 38.691406 C 52.773438 39.28125 51.765625 39.390625 51.058594 38.917969 C 50.960938 38.855469 50.875 38.769531 50.78125 38.691406 L 37.496094 25.40625 L 24.207031 38.691406 L 23.929688 38.917969 C 23.832031 38.976562 23.730469 39.039062 23.617188 39.082031 C 22.851562 39.410156 21.867188 39.113281 21.40625 38.414062 C 21.007812 37.816406 21.007812 36.992188 21.40625 36.394531 C 21.46875 36.292969 21.554688 36.210938 21.632812 36.117188 L 36.207031 21.535156 C 36.300781 21.464844 36.386719 21.378906 36.484375 21.316406 C 36.683594 21.179688 36.90625 21.085938 37.140625 21.042969 C 37.375 20.996094 37.617188 21.015625 37.851562 21.042969 " fill-opacity="1" fill-rule="nonzero"/></g></svg>